<svg width="433" height="220" viewBox="0 0 433 220" fill="none" xmlns="http://www.w3.org/2000/svg">
<path d="M334.331 47.5151L334.331 47.515C335.084 48.0028 336.177 48.4648 337.311 48.6539C338.438 48.8418 339.688 48.7727 340.676 48.086L340.688 48.0774L340.7 48.068L343.393 45.9437C344.377 45.2534 344.783 44.2177 344.952 43.1527C345.087 42.2983 345.079 41.3604 345.071 40.4984C345.069 40.2989 345.067 40.1035 345.067 39.9142L345.067 39.8854L345.064 39.8569C344.495 34.9281 344.102 32.6779 342.13 29.3566L342.13 29.3564C341.386 28.1062 340.157 27.1992 338.751 26.8716C338.111 26.7223 337.597 26.619 337.036 26.6123C336.472 26.6055 335.887 26.6959 335.089 26.8954L335.081 26.8974L335.073 26.8997L332.35 27.6777L332.305 27.6905L332.264 27.7113L329.93 28.8783L329.875 28.9057L329.828 28.9456L327.883 30.6102L327.835 30.6515L327.799 30.7036L326.242 32.9291L326.236 32.9377L326.231 32.9465C326.163 33.0529 326.093 33.1615 326.022 33.2719C325.712 33.7523 325.38 34.2669 325.099 34.7905C324.752 35.4373 324.459 36.1377 324.365 36.8729L324.365 36.873C324.199 38.1792 324.534 39.5153 325.288 40.5989C325.36 40.7033 325.437 40.8057 325.518 40.9063L334.331 47.5151ZM334.331 47.5151L334.323 47.5102M334.331 47.5151L334.323 47.5102M334.323 47.5102C333.18 46.7412 332.214 46.134 331.37 45.6086M334.323 47.5102L331.37 45.6086M331.37 45.6086C331.242 45.529 331.116 45.4511 330.993 45.3747M331.37 45.6086L330.993 45.3747M330.993 45.3747C330.307 44.9488 329.695 44.5692 329.135 44.1935M330.993 45.3747L329.135 44.1935M329.135 44.1935C327.797 43.2968 326.734 42.4122 325.518 40.9065L329.135 44.1935Z" fill="#292D32" stroke="#F5F2E9"/>
<path d="M306.198 60.5482L306.342 61.027L306.198 60.5482L312.447 58.6711L371.625 40.8954C377.924 39.0029 384.693 41.1958 388.462 46.3743L397.351 58.5895C398.547 60.2335 398.125 62.5432 396.458 63.7561C394.791 64.969 392.463 64.6602 391.267 63.0162L382.378 50.801C380.425 48.1171 376.901 46.9632 373.601 47.9543L314.416 65.7326L314.416 65.7326L308.171 67.608L308.171 67.608L295.992 71.2666L289.63 73.1778L289.141 73.3249L289.004 72.8319L287.32 66.7292L287.19 66.2579L287.659 66.1173L294.02 64.2067L294.02 64.2067L306.198 60.5482Z" fill="#292D32" stroke="#F5F2E9"/>
<path d="M344.462 127.464C344.462 129.745 348 129.066 348 129.066C348.817 128.977 357.306 128 360 128C362.694 128 367 128 370.5 128.566C372.535 128.895 376.5 129.066 374.389 125.599C370.288 120.133 362.456 113.464 362.456 113.464C362.456 113.464 359.062 110.96 354.5 115.066C349.938 119.171 345.629 123.134 344.462 127.464Z" fill="#292D32" stroke="#F5F2E9"/>
<path d="M110.025 206.413L110.032 206.412C112.396 206.13 114.196 205.811 115.415 205.449C116.021 205.268 116.516 205.069 116.869 204.837C117.207 204.616 117.537 204.283 117.534 203.814L117.226 155.249L130.989 155.161C131.953 155.155 132.73 154.544 133.34 153.575C133.949 152.607 134.45 151.199 134.862 149.388C135.686 145.766 136.083 141.922 136.057 137.855C136.032 133.818 135.784 130.699 135.304 128.521C135.101 127.43 134.794 126.552 134.348 125.936C133.886 125.298 133.266 124.935 132.509 124.94L70.7779 125.332C69.7987 125.338 68.9839 125.904 68.3261 126.841C67.6731 127.772 67.1304 129.125 66.6788 130.862C65.7738 134.266 65.3383 138.118 65.3655 142.412C65.3922 146.609 65.7166 149.82 66.3586 152.014C66.6754 153.097 67.0313 153.952 67.4402 154.547C67.846 155.137 68.3705 155.559 69.0299 155.555L84.3905 155.457L84.6988 204.022C84.7026 204.629 84.8961 205.171 85.2829 205.624C85.6622 206.069 86.2039 206.401 86.8656 206.645L86.8827 206.651L86.9002 206.656C87.6055 206.859 88.7194 206.996 90.207 207.082C91.7058 207.169 93.6195 207.204 95.9452 207.189C100.678 207.159 105.371 206.901 110.025 206.413Z" fill="#292D32" stroke="#F5F2E9" stroke-linecap="square"/>
<path d="M140.54 138.679L140.539 138.68C133.327 144.102 129.816 153.016 129.893 165.28C129.981 179.033 133.515 188.57 140.661 193.685C144.078 196.214 147.878 197.968 152.057 198.946C156.22 199.92 161.171 200.385 166.903 200.349C178.022 200.278 186.918 197.306 193.536 191.382L193.539 191.38C200.179 185.358 203.424 176.471 203.35 164.814C203.313 159.074 202.632 154.119 201.293 149.958C199.961 145.744 198.24 142.415 196.112 140.002C194.059 137.586 191.315 135.698 187.899 134.325C184.584 132.962 181.303 132.095 178.057 131.729C174.83 131.29 170.964 131.086 166.463 131.114C155.889 131.181 147.234 133.689 140.54 138.679ZM168.626 182.117L168.613 182.128L168.602 182.14C168.192 182.554 167.577 182.799 166.677 182.804C165.876 182.809 165.24 182.585 164.734 182.154C164.56 181.974 164.324 181.539 164.059 180.741C163.796 179.953 163.528 178.883 163.255 177.525C162.714 174.837 162.424 170.959 162.391 165.873C162.359 160.787 162.601 156.905 163.107 154.21L163.107 154.208C163.363 152.81 163.626 151.712 163.896 150.905C164.174 150.073 164.432 149.634 164.627 149.461L164.639 149.45L164.651 149.438C165.156 148.926 165.785 148.664 166.575 148.659C167.362 148.654 168.06 149.03 168.679 149.91C169.087 150.515 169.417 151.391 169.645 152.568L169.648 152.583L169.652 152.597C169.953 153.769 170.19 155.482 170.355 157.754L170.356 157.763L170.357 157.772C170.597 159.951 170.731 163.124 170.757 167.303C170.783 171.392 170.54 174.783 170.032 177.482L170.032 177.482L170.03 177.495C169.812 178.854 169.577 179.922 169.327 180.708C169.068 181.518 168.819 181.946 168.626 182.117Z" fill="#292D32" stroke="#F5F2E9" stroke-linecap="square"/>
<path d="M222.263 208.553L222.263 208.553L222.271 208.552C224.408 208.271 226.041 207.952 227.149 207.588C227.7 207.407 228.154 207.204 228.481 206.968C228.801 206.736 229.086 206.404 229.083 205.958L229.012 194.844L231.227 192.169C232.925 198.326 234.516 203.019 236.003 206.235L236.005 206.239C236.785 207.889 237.559 209.16 238.333 210.025C239.1 210.883 239.933 211.41 240.827 211.405C242.316 211.395 244.295 210.953 246.741 210.114C249.195 209.273 252.154 208.018 255.615 206.356C259.079 204.692 261.706 203.144 263.472 201.708C265.211 200.296 266.238 198.894 266.229 197.507C266.226 197.119 266.117 196.67 265.936 196.178C265.752 195.679 265.481 195.106 265.13 194.461C264.429 193.17 263.386 191.558 262.008 189.629C259.302 185.838 255.277 180.785 249.94 174.474C253.113 171.194 256.161 167.024 259.088 161.975C260.598 159.37 261.736 157.176 262.497 155.395C263.25 153.632 263.659 152.217 263.653 151.195C263.643 149.708 262.708 148.386 261.083 147.213C259.455 146.037 257.052 144.949 253.906 143.935C247.627 141.912 242.24 140.903 237.755 140.932C237.325 140.934 236.968 141.2 236.689 141.51C236.399 141.831 236.115 142.286 235.832 142.85C235.263 143.981 234.648 145.65 233.984 147.84C232.675 152.16 231.151 158.588 229.414 167.116L228.836 167.119L228.569 124.944C228.562 123.982 228.315 123.119 227.812 122.375C227.311 121.634 226.577 121.04 225.64 120.579C223.78 119.663 221.059 119.243 217.534 119.265C212.535 119.297 207.841 120.134 203.456 121.782L203.456 121.782L203.454 121.783C201.31 122.602 199.665 123.441 198.548 124.31C197.44 125.172 196.767 126.133 196.773 127.2L197.275 206.16C197.279 206.784 197.503 207.333 197.935 207.784C198.357 208.223 198.956 208.549 199.687 208.787L199.699 208.791L199.712 208.795C200.451 208.995 201.589 209.133 203.097 209.218C204.615 209.305 206.538 209.34 208.863 209.325C213.52 209.296 217.986 209.038 222.263 208.553Z" fill="#292D32" stroke="#F5F2E9" stroke-linecap="square"/>
<path d="M271.941 179.386L271.949 179.389L271.958 179.393C274.696 180.468 277.807 180.989 281.282 180.967C284.828 180.944 288.039 180.423 290.909 179.394C292.32 178.888 293.482 178.429 294.39 178.016C295.289 177.607 295.973 177.23 296.403 176.881C297.074 176.337 297.608 175.875 297.997 175.497L298.206 175.496L298.246 181.728C298.258 183.687 297.69 184.946 296.661 185.662L296.655 185.667L296.649 185.671C296.175 186.024 295.365 186.326 294.157 186.539C292.96 186.749 291.422 186.863 289.535 186.875C285.869 186.898 281.234 186.178 275.617 184.698L275.617 184.698L275.607 184.696C274.691 184.473 273.961 184.305 273.42 184.193C272.902 184.085 272.503 184.016 272.287 184.018C271.362 184.023 270.561 184.773 269.856 185.855C269.126 186.974 268.389 188.621 267.637 190.769L267.636 190.772C266.143 195.114 265.373 198.273 265.385 200.194C265.394 201.634 266.591 202.857 268.517 203.92L268.523 203.923C270.774 205.129 273.986 206.004 278.121 206.571C282.264 207.138 287.369 207.401 293.431 207.363C304.964 207.29 313.692 205.108 319.532 200.738C325.4 196.347 328.281 189.802 328.226 181.196L327.883 127.224C327.878 126.403 327.683 125.662 327.282 125.019C326.881 124.377 326.293 123.861 325.544 123.462C324.06 122.67 321.904 122.312 319.136 122.329C313.611 122.364 308.429 123.203 303.593 124.849C301.188 125.63 299.347 126.427 298.098 127.251C296.874 128.059 296.085 128.984 296.092 130.05L296.296 162.228C296.302 163.212 296.131 163.861 295.858 164.254C295.608 164.614 295.233 164.816 294.644 164.819C294.342 164.821 293.934 164.593 293.49 163.684C293.06 162.801 292.68 161.434 292.366 159.549C291.74 155.79 291.4 150.119 291.351 142.518L291.26 128.141C291.254 127.201 291.02 126.358 290.544 125.628C290.069 124.902 289.371 124.317 288.481 123.864C286.714 122.964 284.133 122.552 280.797 122.573C275.799 122.605 271.032 123.442 266.499 125.088C264.245 125.868 262.517 126.667 261.344 127.493C260.188 128.307 259.457 129.232 259.464 130.283L259.564 146.029C259.622 155.096 260.389 162.143 261.885 167.146C262.754 170.303 263.974 172.872 265.562 174.831L265.562 174.831L265.568 174.839C267.16 176.724 269.29 178.236 271.941 179.386Z" fill="#292D32" stroke="#F5F2E9" stroke-linecap="square"/>
<path d="M332.426 137.461L332.425 137.462C325.213 142.884 321.701 151.798 321.779 164.063C321.866 177.815 325.401 187.352 332.546 192.467C335.964 194.996 339.764 196.75 343.942 197.728C348.106 198.702 353.057 199.167 358.789 199.131C369.907 199.06 378.804 196.088 385.422 190.164L385.424 190.162C392.065 184.14 395.31 175.253 395.236 163.596C395.199 157.856 394.517 152.901 393.179 148.741C391.847 144.526 390.125 141.197 387.998 138.784C385.944 136.369 383.2 134.48 379.785 133.107C376.469 131.744 373.188 130.878 369.943 130.512C366.716 130.072 362.85 129.868 358.349 129.896C347.775 129.964 339.12 132.471 332.426 137.461ZM360.512 180.899L360.499 180.91L360.487 180.922C360.078 181.337 359.462 181.581 358.563 181.587C357.762 181.592 357.126 181.367 356.62 180.936C356.446 180.756 356.21 180.321 355.944 179.524C355.682 178.735 355.414 177.666 355.141 176.307C354.6 173.619 354.309 169.741 354.277 164.655C354.245 159.569 354.486 155.687 354.993 152.993L354.993 152.99C355.248 151.592 355.512 150.494 355.781 149.687C356.059 148.855 356.317 148.416 356.513 148.243L356.525 148.232L356.537 148.22C357.042 147.708 357.671 147.447 358.46 147.442C359.248 147.437 359.946 147.812 360.565 148.693C360.973 149.298 361.303 150.173 361.531 151.35L361.534 151.365L361.538 151.379C361.839 152.551 362.075 154.265 362.241 156.536L362.242 156.545L362.243 156.554C362.482 158.733 362.617 161.906 362.643 166.085C362.669 170.175 362.425 173.565 361.918 176.264L361.918 176.264L361.916 176.278C361.698 177.637 361.463 178.704 361.212 179.49C360.954 180.3 360.705 180.728 360.512 180.899Z" fill="#292D32" stroke="#F5F2E9" stroke-linecap="square"/>
<path d="M304.683 117.589L381.592 195.423L381.739 195.572L381.948 195.572L390.699 195.572L392.01 195.572L391.032 194.699L390.699 195.072L391.032 194.699L391.032 194.699L391.031 194.698L391.028 194.695L391.015 194.684L390.965 194.639L390.776 194.47C390.612 194.324 390.378 194.115 390.096 193.862C389.53 193.356 388.771 192.677 387.996 191.98C386.432 190.575 384.835 189.13 384.585 188.873L384.541 188.828L384.538 188.824L378.221 182.438L378.221 182.438L374.329 178.501L366.737 170.825L366.737 170.825L362.735 166.778L362.735 166.778L348.708 152.594L344.711 148.553L344.711 148.553L337.12 140.877L336.765 141.228L337.12 140.877L333.227 136.94L307.996 111.427L313.019 102.123C313.34 101.529 313.898 101.132 314.556 101.027L314.556 101.027C315.21 100.923 315.833 101.129 316.275 101.586L316.754 102.08L317.076 101.472L319.776 96.3838L319.99 95.9788L319.606 95.7297C317.888 94.6183 315.816 94.1813 313.699 94.5193C310.932 94.9611 308.573 96.6418 307.232 99.1253L307.232 99.1253L299.152 114.091L299.152 114.091C297.393 117.351 297.865 121.308 300.352 123.931L304.683 117.589ZM304.683 117.589C304.536 117.897 304.412 118.21 304.338 118.519C304.23 118.969 304.24 119.364 304.41 119.706L339.863 157.156L339.864 157.157L364.356 183.148L376.328 194.712L377.218 195.572L375.981 195.572L369.219 195.572L369.015 195.572L368.87 195.43L363.151 189.858L363.151 189.858L363.148 189.855L358.259 185.005L358.253 184.999L358.248 184.994L330.52 155.75L330.52 155.75L325.809 150.781L325.809 150.781L300.352 123.931L304.683 117.589ZM329.939 84.7365L329.939 84.7365C332.319 84.3359 334.727 85.1062 336.376 86.8093L353.156 104.134C355.974 107.043 355.801 111.759 352.821 114.645L338.395 128.617C335.415 131.503 330.697 131.526 327.878 128.616L315.786 116.131C313.612 113.886 313.156 110.467 314.626 107.628L315.07 107.858L314.626 107.628L317.404 102.262L317.404 102.262L320.158 96.9417L320.602 97.1715L320.158 96.9417L324.363 88.8182L324.363 88.8181C325.478 86.6643 327.561 85.1381 329.939 84.7365Z" fill="#292D32" stroke="#F5F2E9"/>
<path d="M22.5308 120.261L22.5308 120.261L22.5428 120.261C28.1938 120.089 32.4652 119.666 35.3338 118.982C36.7643 118.64 37.8854 118.225 38.6592 117.716C39.437 117.205 39.9381 116.546 39.9328 115.723C39.8901 108.992 39.0117 96.4714 37.302 78.1789L37.5683 78.1773L45.02 113.076C45.3115 114.662 45.8998 115.856 46.8809 116.501L46.8908 116.507L46.901 116.514C47.4558 116.842 48.3784 117.046 49.5781 117.174C50.8018 117.305 52.392 117.363 54.3423 117.35C58.2359 117.325 61.1883 116.992 63.1593 116.321C65.2165 115.652 66.547 114.556 66.8593 112.941L66.8594 112.94L73.6003 77.9485L73.8653 77.9468C72.4747 95.9047 71.8 108.434 71.845 115.52C71.85 116.306 72.1374 116.999 72.6884 117.576C73.2284 118.142 74.0055 118.581 74.9765 118.918C76.9138 119.589 79.7614 119.898 83.4793 119.874C90.8977 119.827 97.1956 119.425 102.368 118.666C104.949 118.287 106.919 117.851 108.253 117.35C108.919 117.1 109.459 116.822 109.841 116.503C110.225 116.182 110.501 115.772 110.498 115.275L109.946 28.3217C109.939 27.3629 109.447 26.5363 108.596 25.8448C107.756 25.1613 106.534 24.5811 104.97 24.0857C101.903 23.0857 97.1834 22.6203 90.8535 22.6604C84.4833 22.7009 78.6088 23.6937 73.2344 25.6448C70.5982 26.5728 68.512 27.587 66.9973 28.697C65.4831 29.8066 64.5017 31.0407 64.1548 32.4148L64.1542 32.4172L55.796 66.2258L55.3534 66.2286L46.0164 30.9088C46.0162 30.9081 46.016 30.9075 46.0159 30.9068C45.5027 28.9113 43.7712 27.117 41.0135 25.4861C38.1707 23.8049 33.5332 23.0243 27.1962 23.0645C20.8434 23.1049 14.8518 23.7781 9.22299 25.0865C6.45516 25.6949 4.33337 26.4216 2.89331 27.2839C1.45744 28.1436 0.594086 29.2077 0.602326 30.5057L1.14485 115.969C1.14979 116.747 1.37731 117.443 1.83795 118.031C2.2935 118.613 2.95352 119.061 3.77882 119.394C5.42085 120.058 8.40596 120.351 12.6437 120.324L12.669 120.324L12.6944 120.324L12.7197 120.323L12.7451 120.323L12.7703 120.323L12.7956 120.323L12.8208 120.323L12.8461 120.323L12.8713 120.322L12.8964 120.322L12.9216 120.322L12.9467 120.322L12.9718 120.322L12.9969 120.322L13.0219 120.321L13.0469 120.321L13.0719 120.321L13.0969 120.321L13.1219 120.321L13.1468 120.321L13.1717 120.32L13.1966 120.32L13.2215 120.32L13.2463 120.32L13.2711 120.32L13.2959 120.32L13.3207 120.32L13.3454 120.319L13.3701 120.319L13.3948 120.319L13.4195 120.319L13.4441 120.319L13.4688 120.319L13.4934 120.318L13.5179 120.318L13.5425 120.318L13.567 120.318L13.5915 120.318L13.616 120.318L13.6405 120.318L13.6649 120.317L13.6893 120.317L13.7137 120.317L13.738 120.317L13.7624 120.317L13.7867 120.317L13.811 120.316L13.8353 120.316L13.8595 120.316L13.8837 120.316L13.9079 120.316L13.9321 120.316L13.9562 120.316L13.9804 120.315L14.0045 120.315L14.0285 120.315L14.0526 120.315L14.0766 120.315L14.1006 120.315L14.1246 120.314L14.1486 120.314L14.1725 120.314L14.1964 120.314L14.2203 120.314L14.2441 120.314L14.268 120.314L14.2918 120.313L14.3156 120.313L14.3394 120.313L14.3631 120.313L14.3868 120.313L14.4105 120.313L14.4342 120.312L14.4578 120.312L14.4815 120.312L14.5051 120.312L14.5286 120.312L14.5522 120.312L14.5757 120.312L14.5992 120.311L14.6227 120.311L14.6462 120.311L14.6696 120.311L14.693 120.311L14.7164 120.311L14.7398 120.311L14.7631 120.31L14.7864 120.31L14.8097 120.31L14.833 120.31L14.8562 120.31L14.8794 120.31L14.9026 120.31L14.9258 120.309L14.949 120.309L14.9721 120.309L14.9952 120.309L15.0183 120.309L15.0413 120.309L15.0643 120.308L15.0874 120.308L15.1103 120.308L15.1333 120.308L15.1562 120.308L15.1791 120.308L15.202 120.308L15.2249 120.307L15.2477 120.307L15.2706 120.307L15.2933 120.307L15.3161 120.307L15.3389 120.307L15.3616 120.307L15.3843 120.306L15.407 120.306L15.4296 120.306L15.4522 120.306L15.4748 120.306L15.4974 120.306L15.52 120.306L15.5425 120.305L15.565 120.305L15.5875 120.305L15.6099 120.305L15.6324 120.305L15.6548 120.305L15.6772 120.305L15.6995 120.304L15.7219 120.304L15.7442 120.304L15.7665 120.304L15.7888 120.304L15.811 120.304L15.8332 120.304L15.8554 120.303L15.8776 120.303L15.8998 120.303L15.9219 120.303L15.944 120.303L15.9661 120.303L15.9881 120.303L16.0102 120.302L16.0322 120.302L16.0542 120.302L16.0761 120.302L16.0981 120.302L16.12 120.302L16.1419 120.302L16.1637 120.301L16.1856 120.301L16.2074 120.301L16.2292 120.301L16.2509 120.301L16.2727 120.301L16.2944 120.301L16.3161 120.301L16.3378 120.3L16.3594 120.3L16.3811 120.3L16.4027 120.3L16.4243 120.3L16.4458 120.3L16.4673 120.3L16.4889 120.299L16.5103 120.299L16.5318 120.299L16.5532 120.299L16.5747 120.299L16.596 120.299L16.6174 120.299L16.6388 120.298L16.6601 120.298L16.6814 120.298L16.7026 120.298L16.7239 120.298L16.7451 120.298L16.7663 120.298L16.7875 120.298L16.8086 120.297L16.8298 120.297L16.8509 120.297L16.872 120.297L16.893 120.297L16.9141 120.297L16.9351 120.297L16.956 120.296L16.977 120.296L16.998 120.296L17.0189 120.296L17.0398 120.296L17.0606 120.296L17.0815 120.296L17.1023 120.296L17.1231 120.295L17.1439 120.295L17.1646 120.295L17.1853 120.295L17.206 120.295L17.2267 120.295L17.2474 120.295L17.268 120.294L17.2886 120.294L17.3092 120.294L17.3297 120.294L17.3503 120.294L17.3708 120.294L17.3913 120.294L17.4117 120.294L17.4322 120.293L17.4526 120.293L17.473 120.293L17.4934 120.293L17.5137 120.293L17.534 120.293L17.5543 120.293L17.5746 120.293L17.5948 120.292L17.6151 120.292L17.6353 120.292L17.6554 120.292L17.6756 120.292L17.6957 120.292L17.7158 120.292L17.7359 120.292L17.756 120.291L17.776 120.291L17.796 120.291L17.816 120.291L17.836 120.291L17.8559 120.291L17.8758 120.291L17.8957 120.291L17.9156 120.29L17.9354 120.29L17.9553 120.29L17.9751 120.29L17.9948 120.29L18.0146 120.29L18.0343 120.29L18.054 120.289L18.0737 120.289L18.0934 120.289L18.113 120.289L18.1326 120.289L18.1522 120.289L18.1717 120.289L18.1913 120.289L18.2108 120.289L18.2303 120.288L18.2497 120.288L18.2692 120.288L18.2886 120.288L18.308 120.288L18.3274 120.288L18.3467 120.288L18.366 120.288L18.3853 120.287L18.4046 120.287L18.4239 120.287L18.4431 120.287L18.4623 120.287L18.4815 120.287L18.5006 120.287L18.5198 120.287L18.5389 120.286L18.558 120.286L18.577 120.286L18.5961 120.286L18.6151 120.286L18.6341 120.286L18.653 120.286L18.672 120.286L18.6909 120.285L18.7098 120.285L18.7287 120.285L18.7475 120.285L18.7663 120.285L18.7851 120.285L18.8039 120.285L18.8227 120.285L18.8414 120.284L18.8601 120.284L18.8788 120.284L18.8974 120.284L18.9161 120.284L18.9347 120.284L18.9533 120.284L18.9718 120.284L18.9904 120.284L19.0089 120.283L19.0274 120.283L19.0458 120.283L19.0643 120.283L19.0827 120.283L19.1011 120.283L19.1195 120.283L19.1378 120.283L19.1561 120.282L19.1744 120.282L19.1927 120.282L19.211 120.282L19.2292 120.282L19.2474 120.282L19.2656 120.282L19.2837 120.282L19.3019 120.282L19.32 120.281L19.3381 120.281L19.3561 120.281L19.3742 120.281L19.3922 120.281L19.4102 120.281L19.4282 120.281L19.4461 120.281L19.464 120.281L19.4819 120.28L19.4998 120.28L19.5176 120.28L19.5355 120.28L19.5533 120.28L19.571 120.28L19.5888 120.28L19.6065 120.28L19.6242 120.28L19.6419 120.279L19.6596 120.279L19.6772 120.279L19.6948 120.279L19.7124 120.279L19.73 120.279L19.7475 120.279L19.765 120.279L19.7825 120.279L19.8 120.278L19.8174 120.278L19.8349 120.278L19.8523 120.278L19.8696 120.278L19.887 120.278L19.9043 120.278L19.9216 120.278L19.9389 120.278L19.9561 120.277L19.9734 120.277L19.9906 120.277L20.0078 120.277L20.0249 120.277L20.0421 120.277L20.0592 120.277L20.0763 120.277L20.0933 120.277L20.1104 120.276L20.1274 120.276L20.1444 120.276L20.1614 120.276L20.1783 120.276L20.1952 120.276L20.2121 120.276L20.229 120.276L20.2458 120.276L20.2627 120.275L20.2795 120.275L20.2963 120.275L20.313 120.275L20.3297 120.275L20.3465 120.275L20.3631 120.275L20.3798 120.275L20.3964 120.275L20.413 120.275L20.4296 120.274L20.4462 120.274L20.4627 120.274L20.4793 120.274L20.4958 120.274L20.5122 120.274L20.5287 120.274L20.5451 120.274L20.5615 120.274L20.5779 120.273L20.5942 120.273L20.6106 120.273L20.6269 120.273L20.6431 120.273L20.6594 120.273L20.6756 120.273L20.6918 120.273L20.708 120.273L20.7242 120.273L20.7403 120.272L20.7564 120.272L20.7725 120.272L20.7886 120.272L20.8046 120.272L20.8207 120.272L20.8367 120.272L20.8526 120.272L20.8686 120.272L20.8845 120.272L20.9004 120.271L20.9163 120.271L20.9321 120.271L20.948 120.271L20.9638 120.271L20.9795 120.271L20.9953 120.271L21.011 120.271L21.0267 120.271L21.0424 120.271L21.0581 120.27L21.0737 120.27L21.0893 120.27L21.1049 120.27L21.1205 120.27L21.1361 120.27L21.1516 120.27L21.1671 120.27L21.1825 120.27L21.198 120.27L21.2134 120.269L21.2288 120.269L21.2442 120.269L21.2595 120.269L21.2749 120.269L21.2902 120.269L21.3055 120.269L21.3207 120.269L21.336 120.269L21.3512 120.269L21.3664 120.268L21.3815 120.268L21.3967 120.268L21.4118 120.268L21.4269 120.268L21.4419 120.268L21.457 120.268L21.472 120.268L21.487 120.268L21.502 120.268L21.5169 120.268L21.5319 120.267L21.5468 120.267L21.5616 120.267L21.5765 120.267L21.5913 120.267L21.6061 120.267L21.6209 120.267L21.6357 120.267L21.6504 120.267L21.6651 120.267L21.6798 120.266L21.6945 120.266L21.7091 120.266L21.7237 120.266L21.7383 120.266L21.7529 120.266L21.7674 120.266L21.782 120.266L21.7965 120.266L21.8109 120.266L21.8254 120.266L21.8398 120.265L21.8542 120.265L21.8686 120.265L21.8829 120.265L21.8973 120.265L21.9116 120.265L21.9259 120.265L21.9401 120.265L21.9544 120.265L21.9686 120.265L21.9828 120.265L21.9969 120.264L22.0111 120.264L22.0252 120.264L22.0393 120.264L22.0534 120.264L22.0674 120.264L22.0814 120.264L22.0954 120.264L22.1094 120.264L22.1234 120.264L22.1373 120.264L22.1512 120.263L22.1651 120.263L22.1789 120.263L22.1928 120.263L22.2066 120.263L22.2203 120.263L22.2341 120.263L22.2478 120.263L22.2616 120.263L22.2752 120.263L22.2889 120.263L22.3026 120.263L22.3162 120.262L22.3298 120.262L22.3433 120.262L22.3569 120.262L22.3704 120.262L22.3839 120.262L22.3974 120.262L22.4108 120.262L22.4243 120.262L22.4377 120.262L22.4511 120.262L22.4644 120.261L22.4777 120.261L22.4911 120.261L22.5043 120.261L22.5176 120.261L22.5308 120.261Z" fill="#292D32" stroke="#F5F2E9" stroke-linecap="square"/>
<path d="M111.185 46.4677L111.183 46.4689C102.655 52.8808 98.4924 63.4271 98.5847 77.9676C98.6883 94.2809 102.881 105.563 111.327 111.609C115.373 114.603 119.872 116.68 124.82 117.838C129.753 118.992 135.622 119.544 142.42 119.501C155.602 119.417 166.137 115.894 173.972 108.881L173.974 108.879C181.832 101.753 185.677 91.2346 185.59 77.4153C185.546 70.6085 184.738 64.7366 183.153 59.8095C181.574 54.8139 179.536 50.8757 177.021 48.0237C174.595 45.1699 171.351 42.9358 167.308 41.3115C163.379 39.6963 159.493 38.6699 155.649 38.2365C151.824 37.7152 147.24 37.473 141.9 37.5069C129.362 37.5865 119.11 40.5595 111.185 46.4677ZM144.528 98.023L144.516 98.034L144.504 98.0459C143.996 98.5608 143.238 98.8556 142.154 98.8625C141.182 98.8686 140.403 98.5953 139.783 98.0649C139.559 97.8361 139.273 97.3008 138.956 96.3497C138.643 95.4086 138.324 94.135 137.999 92.5211C137.356 89.3217 137.011 84.7114 136.972 78.6721C136.934 72.6328 137.221 68.0184 137.823 64.8111L137.824 64.8086C138.127 63.1471 138.441 61.839 138.763 60.8754C139.093 59.8862 139.406 59.3438 139.657 59.1207L139.67 59.1097L139.681 59.0978C140.3 58.4714 141.071 58.1519 142.031 58.1458C143.003 58.1396 143.858 58.6064 144.607 59.6712C145.101 60.4037 145.495 61.4564 145.768 62.8612L145.771 62.8758L145.775 62.8902C146.134 64.2894 146.415 66.3295 146.612 69.0274L146.613 69.0366L146.614 69.0456C146.899 71.6364 147.058 75.4075 147.09 80.3686C147.121 85.226 146.831 89.2567 146.228 92.4689L146.227 92.4688L146.225 92.4821C145.967 94.0975 145.686 95.3699 145.387 96.3089C145.08 97.2725 144.778 97.8015 144.528 98.023Z" fill="#292D32" stroke="#F5F2E9" stroke-linecap="square"/>
<path d="M205.72 118.004L205.72 118.004L205.731 118.006C209.57 118.712 214.392 119.043 220.189 119.006C223.096 118.988 225.503 118.78 227.397 118.375C229.281 117.972 230.716 117.362 231.623 116.495C232.54 115.617 233.168 114.161 233.57 112.228C233.974 110.281 234.162 107.781 234.143 104.738C234.123 101.658 233.928 99.3099 233.543 97.7193C233.338 96.8707 232.945 96.1854 232.334 95.7189C231.724 95.2537 230.95 95.0477 230.06 95.0533C228.629 95.0624 226.899 94.6094 224.856 93.6492C223.889 93.1509 223.184 92.5064 222.715 91.7228C222.244 90.9359 221.994 89.9792 221.987 88.8323L221.833 64.5466L229.324 64.499C231.301 64.4865 232.71 62.7681 233.693 59.9438C234.784 56.9733 235.306 53.2497 235.277 48.7912C235.256 45.3898 234.946 42.7844 234.32 41.0147C233.696 39.2495 232.683 38.1492 231.188 38.1587L221.666 38.2191L221.544 19.0802C221.537 17.9757 221.25 16.9891 220.67 16.1397C220.092 15.2936 219.242 14.6123 218.153 14.0822C215.988 13.0288 212.811 12.5405 208.677 12.5668C203.385 12.6004 197.968 13.5017 192.428 15.266L192.425 15.2667C189.693 16.151 187.599 17.1819 186.181 18.3788C184.752 19.5848 183.986 20.984 183.996 22.5693L184.097 38.4576L180.263 38.482C178.139 38.4954 176.536 40.1646 175.361 43.0186L175.36 43.0185L175.357 43.0262C174.263 45.8134 173.735 49.0426 173.758 52.7033C173.781 56.3399 174.162 59.2455 174.924 61.3933C175.301 62.4546 175.725 63.294 176.212 63.8758C176.704 64.4635 177.298 64.8293 177.992 64.8249L184.264 64.7851L184.395 85.4138C184.484 99.4509 187.844 108.868 194.681 113.395L194.685 113.397C198.18 115.665 201.859 117.202 205.72 118.004Z" fill="#292D32" stroke="#F5F2E9" stroke-linecap="square"/>
<path d="M238.695 54.5368L238.693 54.5381C231.26 60.1269 227.639 69.3155 227.719 81.9637C227.809 96.1481 231.455 105.979 238.819 111.251C242.343 113.858 246.26 115.666 250.569 116.675C254.861 117.679 259.967 118.159 265.879 118.122C277.345 118.049 286.518 114.984 293.341 108.876L293.343 108.874C300.189 102.666 303.535 93.5045 303.459 81.4829C303.421 75.5632 302.718 70.4536 301.338 66.1638C299.964 61.8174 298.189 58.3861 295.996 55.8987C293.88 53.4096 291.052 51.4626 287.531 50.0479C284.112 48.6423 280.729 47.7487 277.383 47.3713C274.055 46.9178 270.068 46.7073 265.426 46.7368C254.52 46.806 245.596 49.3922 238.695 54.5368ZM267.667 99.3427L267.654 99.3538L267.642 99.3656C267.216 99.7972 266.577 100.05 265.646 100.056C264.816 100.061 264.156 99.8284 263.631 99.3803C263.448 99.1922 263.204 98.7405 262.93 97.917C262.659 97.1028 262.382 95.9989 262.1 94.5976C261.543 91.8235 261.243 87.8219 261.209 82.5751C261.176 77.3282 261.425 73.3232 261.948 70.5422L261.948 70.5397C262.212 69.0972 262.484 67.9639 262.762 67.1306C263.049 66.2718 263.316 65.8155 263.521 65.634L263.533 65.623L263.545 65.6112C264.069 65.08 264.722 64.8085 265.54 64.8033C266.359 64.7981 267.083 65.1888 267.724 66.1005C268.147 66.7269 268.487 67.6322 268.723 68.848L268.726 68.8627L268.73 68.8771C269.041 70.0873 269.285 71.8556 269.456 74.1989L269.457 74.208L269.458 74.2171C269.705 76.4652 269.843 79.7396 269.871 84.0502C269.897 88.2689 269.646 91.7672 269.123 94.553L269.122 94.553L269.12 94.5663C268.896 95.9685 268.652 97.0707 268.394 97.8823C268.128 98.7185 267.869 99.163 267.667 99.3427Z" fill="#292D32" stroke="#F5F2E9" stroke-linecap="square"/>
<path d="M346.29 56.9234C350.62 54.8242 354.816 55.011 360.29 55.9233C366.22 59.1164 367.39 59.9924 370.127 64.3685L373.32 73.3564L376.513 82.3442L380.361 93.2431L380.382 93.4019C380.806 96.5401 381.275 100.006 380.361 104.923L377.79 110.423L370.127 117.969L330.79 76.969C330 76.0456 329.834 73.748 330.29 71.9233L332.29 66.9233C335.551 62.4393 337.228 61.6603 341.79 58.9234L346.29 56.9234Z" fill="#292D32" stroke="#F5F2E9"/>
<path d="M413.128 134.557C415.753 135.459 417.141 136.227 419.058 138.206L422.707 144.136L412.301 146.402C412.301 146.402 405.829 148.242 399.899 147.329C397.618 145.961 395.871 144.136 395.871 144.136L371.801 118.948L378.801 110.902L390.801 122.902L402.301 133.402C403.649 134.793 404.959 134.315 406.801 134.947L413.128 134.557Z" fill="#292D32" stroke="#F5F2E9"/>
</svg>
