<?xml version="1.0" standalone="no"?>
<!DOCTYPE svg PUBLIC "-//W3C//DTD SVG 20010904//EN"
 "http://www.w3.org/TR/2001/REC-SVG-20010904/DTD/svg10.dtd">
<svg version="1.0" xmlns="http://www.w3.org/2000/svg"
 width="217.000000pt" height="217.000000pt" viewBox="0 0 217.000000 217.000000"
 preserveAspectRatio="xMidYMid meet">
<metadata>
Created by potrace 1.15, written by Peter Selinger 2001-2017
</metadata><g><rect x="0" y="0" width="217" height="217" fill="#ffffff" rx="24.5" />
<g transform="translate(0.000000,217.000000) scale(0.050000,-0.050000)"
fill="#020304" stroke="none">
<path d="M420 3430 l0 -490 490 0 490 0 0 490 0 490 -490 0 -490 0 0 -490z
m840 0 l0 -350 -350 0 -350 0 0 350 0 350 350 0 350 0 0 -350z"/>
<path d="M700 3430 l0 -210 210 0 210 0 0 210 0 210 -210 0 -210 0 0 -210z"/>
<path d="M1820 3850 l0 -70 -70 0 -70 0 0 -70 0 -70 -70 0 -70 0 0 -70 0 -70
70 0 70 0 0 -140 0 -140 70 0 70 0 0 -140 0 -140 70 0 70 0 0 -70 0 -70 70 0
70 0 0 -70 0 -70 -70 0 -70 0 0 -70 0 -70 -70 0 -70 0 0 70 0 70 -70 0 -70 0
0 210 0 210 -70 0 -70 0 0 -140 0 -140 -280 0 -280 0 0 -70 0 -70 210 0 210 0
0 -70 0 -70 -210 0 -210 0 0 -140 0 -140 70 0 70 0 0 -70 0 -70 140 0 140 0 0
70 0 70 70 0 70 0 0 70 0 70 -70 0 -70 0 0 70 0 70 210 0 210 0 0 -70 0 -70
-70 0 -70 0 0 -70 0 -70 70 0 70 0 0 -210 0 -210 -70 0 -70 0 0 70 0 70 -70 0
-70 0 0 -70 0 -70 -70 0 -70 0 0 70 0 70 -210 0 -210 0 0 70 0 70 -140 0 -140
0 0 70 0 70 70 0 70 0 0 280 0 280 -210 0 -210 0 0 -70 0 -70 140 0 140 0 0
-70 0 -70 -70 0 -70 0 0 -140 0 -140 -70 0 -70 0 0 -70 0 -70 140 0 140 0 0
-70 0 -70 140 0 140 0 0 -70 0 -70 -70 0 -70 0 0 -70 0 -70 -70 0 -70 0 0 70
0 70 -70 0 -70 0 0 70 0 70 -70 0 -70 0 0 -70 0 -70 70 0 70 0 0 -70 0 -70
-70 0 -70 0 0 -70 0 -70 70 0 70 0 0 70 0 70 70 0 70 0 0 -70 0 -70 140 0 140
0 0 70 0 70 70 0 70 0 0 -70 0 -70 210 0 210 0 0 -280 0 -280 140 0 140 0 0
-70 0 -70 -140 0 -140 0 0 -210 0 -210 210 0 210 0 0 70 0 70 70 0 70 0 0 -70
0 -70 70 0 70 0 0 70 0 70 -70 0 -70 0 0 70 0 70 -70 0 -70 0 0 -70 0 -70 -70
0 -70 0 0 140 0 140 140 0 140 0 0 140 0 140 140 0 140 0 0 -70 0 -70 70 0 70
0 0 140 0 140 70 0 70 0 0 -140 0 -140 210 0 210 0 0 -70 0 -70 70 0 70 0 0
-140 0 -140 -70 0 -70 0 0 70 0 70 -70 0 -70 0 0 -70 0 -70 -70 0 -70 0 0 70
0 70 -70 0 -70 0 0 70 0 70 -70 0 -70 0 0 -140 0 -140 70 0 70 0 0 -70 0 -70
140 0 140 0 0 70 0 70 70 0 70 0 0 -70 0 -70 70 0 70 0 0 70 0 70 140 0 140 0
0 70 0 70 -70 0 -70 0 0 70 0 70 140 0 140 0 0 70 0 70 140 0 140 0 0 280 0
280 -140 0 -140 0 0 -280 0 -280 -70 0 -70 0 0 350 0 350 -70 0 -70 0 0 70 0
70 -70 0 -70 0 0 70 0 70 -70 0 -70 0 0 210 0 210 70 0 70 0 0 -70 0 -70 70 0
70 0 0 -140 0 -140 70 0 70 0 0 -70 0 -70 70 0 70 0 0 -70 0 -70 70 0 70 0 0
70 0 70 70 0 70 0 0 210 0 210 -70 0 -70 0 0 70 0 70 70 0 70 0 0 140 0 140
-70 0 -70 0 0 -70 0 -70 -140 0 -140 0 0 -70 0 -70 70 0 70 0 0 -140 0 -140
70 0 70 0 0 -70 0 -70 -140 0 -140 0 0 140 0 140 -70 0 -70 0 0 140 0 140
-140 0 -140 0 0 140 0 140 -280 0 -280 0 0 -70 0 -70 70 0 70 0 0 -70 0 -70
70 0 70 0 0 -70 0 -70 -70 0 -70 0 0 -70 0 -70 -70 0 -70 0 0 140 0 140 -70 0
-70 0 0 210 0 210 70 0 70 0 0 70 0 70 70 0 70 0 0 -70 0 -70 70 0 70 0 0 140
0 140 -70 0 -70 0 0 70 0 70 70 0 70 0 0 210 0 210 -70 0 -70 0 0 70 0 70
-210 0 -210 0 0 -70 0 -70 70 0 70 0 0 -70 0 -70 140 0 140 0 0 -140 0 -140
-210 0 -210 0 0 70 0 70 -70 0 -70 0 0 70 0 70 -70 0 -70 0 0 -70 0 -70 70 0
70 0 0 -140 0 -140 -140 0 -140 0 0 140 0 140 -70 0 -70 0 0 70 0 70 70 0 70
0 0 70 0 70 70 0 70 0 0 70 0 70 -70 0 -70 0 0 -70z m560 -770 l0 -140 -70 0
-70 0 0 -70 0 -70 -70 0 -70 0 0 70 0 70 -70 0 -70 0 0 70 0 70 70 0 70 0 0
-70 0 -70 70 0 70 0 0 140 0 140 70 0 70 0 0 -140z m700 -630 l0 -70 -70 0
-70 0 0 -70 0 -70 -70 0 -70 0 0 70 0 70 70 0 70 0 0 70 0 70 70 0 70 0 0 -70z
m-1680 -140 l0 -70 -70 0 -70 0 0 70 0 70 70 0 70 0 0 -70z m700 0 l0 -70 70
0 70 0 0 -70 0 -70 70 0 70 0 0 70 0 70 70 0 70 0 0 -70 0 -70 70 0 70 0 0
-140 0 -140 -140 0 -140 0 0 70 0 70 -70 0 -70 0 0 -140 0 -140 -70 0 -70 0 0
-70 0 -70 -70 0 -70 0 0 -140 0 -140 70 0 70 0 0 -70 0 -70 -70 0 -70 0 0 -70
0 -70 -70 0 -70 0 0 280 0 280 70 0 70 0 0 70 0 70 70 0 70 0 0 70 0 70 -70 0
-70 0 0 70 0 70 70 0 70 0 0 140 0 140 -70 0 -70 0 0 70 0 70 70 0 70 0 0 -70z
m840 -280 l0 -70 -70 0 -70 0 0 70 0 70 70 0 70 0 0 -70z m-1540 -280 l0 -70
-140 0 -140 0 0 70 0 70 140 0 140 0 0 -70z m280 -70 l0 -140 -70 0 -70 0 0
140 0 140 70 0 70 0 0 -140z m1540 70 l0 -70 -140 0 -140 0 0 70 0 70 140 0
140 0 0 -70z m-560 -210 l0 -140 -70 0 -70 0 0 -70 0 -70 -140 0 -140 0 0 140
0 140 70 0 70 0 0 70 0 70 140 0 140 0 0 -140z m560 -210 l0 -210 -210 0 -210
0 0 210 0 210 210 0 210 0 0 -210z"/>
<path d="M2940 1330 l0 -70 70 0 70 0 0 70 0 70 -70 0 -70 0 0 -70z"/>
<path d="M2940 3430 l0 -490 490 0 490 0 0 490 0 490 -490 0 -490 0 0 -490z
m840 0 l0 -350 -350 0 -350 0 0 350 0 350 350 0 350 0 0 -350z"/>
<path d="M3220 3430 l0 -210 210 0 210 0 0 210 0 210 -210 0 -210 0 0 -210z"/>
<path d="M3500 2730 l0 -70 70 0 70 0 0 70 0 70 -70 0 -70 0 0 -70z"/>
<path d="M420 910 l0 -490 490 0 490 0 0 490 0 490 -490 0 -490 0 0 -490z
m840 0 l0 -350 -350 0 -350 0 0 350 0 350 350 0 350 0 0 -350z"/>
<path d="M700 910 l0 -210 210 0 210 0 0 210 0 210 -210 0 -210 0 0 -210z"/>
<path d="M2240 770 l0 -70 70 0 70 0 0 70 0 70 -70 0 -70 0 0 -70z"/>
<path d="M3780 770 l0 -70 -70 0 -70 0 0 -140 0 -140 140 0 140 0 0 70 0 70
-70 0 -70 0 0 70 0 70 70 0 70 0 0 70 0 70 -70 0 -70 0 0 -70z"/>
</g>
</g></svg>
