<svg width="198" height="74" viewBox="0 0 198 74" fill="none" xmlns="http://www.w3.org/2000/svg">
<path d="M170.611 63.2799L169.675 51.1119L169.459 45.3879H175.903L175.687 51.1119L174.751 63.2799H170.611ZM172.663 73.5039C170.467 73.5039 168.883 71.7399 168.883 69.5079C168.883 67.2759 170.467 65.5479 172.663 65.5479C174.895 65.5479 176.479 67.2759 176.479 69.5079C176.479 71.7399 174.895 73.5039 172.663 73.5039Z" fill="#292D32"/>
<path d="M156.303 63.2799L155.367 51.1119L155.151 45.3879H161.595L161.379 51.1119L160.443 63.2799H156.303ZM158.355 73.5039C156.159 73.5039 154.575 71.7399 154.575 69.5079C154.575 67.2759 156.159 65.5479 158.355 65.5479C160.587 65.5479 162.171 67.2759 162.171 69.5079C162.171 71.7399 160.587 73.5039 158.355 73.5039Z" fill="#292D32"/>
<path d="M133.435 73.504C127.531 73.504 122.995 69.544 122.995 62.74C122.995 56.116 127.783 52.012 132.715 52.012C138.619 52.012 141.499 56.296 141.499 61.876C141.499 63.028 141.355 64.144 141.211 64.648H129.187C129.763 67.456 131.707 68.608 134.299 68.608C135.775 68.608 137.143 68.176 138.619 67.312L140.743 71.164C138.619 72.676 135.811 73.504 133.435 73.504ZM129.079 60.436H136.063C136.063 58.42 135.163 56.908 132.823 56.908C131.059 56.908 129.511 58.024 129.079 60.436Z" fill="#292D32"/>
<path d="M111.551 72.9999V51.7239C111.551 47.4039 113.603 43.7319 119.291 43.7319C121.091 43.7319 122.567 44.0919 123.467 44.4159L122.315 49.1679C121.667 48.8799 120.911 48.7359 120.227 48.7359C118.823 48.7359 117.959 49.4919 117.959 51.5439V72.9999H111.551ZM108.815 57.5199V52.7679L111.947 52.5159H121.595V57.5199H108.815Z" fill="#292D32"/>
<path d="M98.9044 73V52.516H105.312V73H98.9044ZM102.108 49.672C99.9484 49.672 98.5444 48.376 98.5444 46.36C98.5444 44.38 99.9484 43.084 102.108 43.084C104.232 43.084 105.672 44.38 105.672 46.36C105.672 48.376 104.232 49.672 102.108 49.672Z" fill="#292D32"/>
<path d="M77.8928 72.9999V46.1799H84.3368V67.5999H94.7768V72.9999H77.8928Z" fill="#292D32"/>
<path d="M55.1324 73.504C49.9124 73.504 45.0884 69.544 45.0884 62.74C45.0884 55.972 49.9124 52.012 55.1324 52.012C60.3164 52.012 65.1404 55.972 65.1404 62.74C65.1404 69.544 60.3164 73.504 55.1324 73.504ZM55.1324 68.32C57.5084 68.32 58.5884 66.16 58.5884 62.74C58.5884 59.356 57.5084 57.196 55.1324 57.196C52.7204 57.196 51.6404 59.356 51.6404 62.74C51.6404 66.16 52.7204 68.32 55.1324 68.32Z" fill="#292D32"/>
<path d="M19.2522 72.9999V46.1799H25.8042L32.4642 59.0319L35.0922 64.9719H35.2722C34.9482 62.1279 34.4082 58.2759 34.4082 55.0719V46.1799H40.5282V72.9999H33.9762L27.3522 60.0759L24.7242 54.2079H24.5442C24.8322 57.1959 25.3722 60.8679 25.3722 64.1079V72.9999H19.2522Z" fill="#292D32"/>
<path d="M186.036 38.604C181.32 38.604 177.468 37.128 177.468 33.456C177.468 31.764 178.44 30.396 180.348 29.424V29.244C179.268 28.524 178.476 27.444 178.476 25.716C178.476 24.276 179.412 22.836 180.78 21.9V21.756C179.304 20.748 177.972 18.84 177.972 16.428C177.972 11.46 182.112 9.01196 186.54 9.01196C187.728 9.01196 188.844 9.19196 189.78 9.51596H197.304V14.16H194.172C194.46 14.736 194.712 15.672 194.712 16.644C194.712 21.432 191.076 23.52 186.54 23.52C185.856 23.52 185.028 23.412 184.128 23.16C183.696 23.592 183.48 23.88 183.48 24.6C183.48 25.536 184.308 25.968 186.504 25.968H189.744C194.784 25.968 197.664 27.516 197.664 31.224C197.664 35.544 193.164 38.604 186.036 38.604ZM186.54 19.668C188.052 19.668 189.168 18.588 189.168 16.428C189.168 14.376 188.052 13.296 186.54 13.296C185.064 13.296 183.948 14.376 183.948 16.428C183.948 18.588 185.064 19.668 186.54 19.668ZM187.044 34.608C189.672 34.608 191.508 33.636 191.508 32.34C191.508 31.116 190.428 30.864 188.52 30.864H186.576C185.1 30.864 184.308 30.792 183.66 30.612C183.012 31.188 182.724 31.764 182.724 32.448C182.724 33.888 184.452 34.608 187.044 34.608Z" fill="#292D32"/>
<path d="M154.996 30V9.51596H160.216L160.684 12.072H160.792C162.484 10.416 164.572 9.01196 167.344 9.01196C171.808 9.01196 173.716 12.216 173.716 17.328V30H167.308V18.12C167.308 15.276 166.552 14.484 164.932 14.484C163.492 14.484 162.628 15.132 161.404 16.32V30H154.996Z" fill="#292D32"/>
<path d="M143.43 30V9.51599H149.838V30H143.43ZM146.634 6.67199C144.474 6.67199 143.07 5.37599 143.07 3.35999C143.07 1.37999 144.474 0.0839844 146.634 0.0839844C148.758 0.0839844 150.198 1.37999 150.198 3.35999C150.198 5.37599 148.758 6.67199 146.634 6.67199Z" fill="#292D32"/>
<path d="M120.614 30.0001V1.23608H126.914V17.2201H127.094L133.142 9.51608H140.162L133.034 18.0481L140.666 30.0001H133.718L129.29 22.2241L126.914 24.9241V30.0001H120.614Z" fill="#292D32"/>
<path d="M103.914 30V9.51596H109.134L109.602 13.08H109.71C111.222 10.344 113.49 9.01196 115.542 9.01196C116.766 9.01196 117.45 9.19196 118.026 9.44396L116.982 14.952C116.226 14.772 115.614 14.628 114.714 14.628C113.202 14.628 111.366 15.6 110.322 18.3V30H103.914Z" fill="#292D32"/>
<path d="M87.2663 30.504C83.4863 30.504 81.1823 27.696 81.1823 24.276C81.1823 19.956 84.5662 17.616 92.5582 16.752C92.4142 15.096 91.5502 14.124 89.4622 14.124C87.8422 14.124 86.1503 14.772 84.0983 15.924L81.8663 11.712C84.5663 10.092 87.4822 9.01196 90.6862 9.01196C95.9782 9.01196 98.9662 11.964 98.9662 18.372V30H93.7462L93.3143 27.948H93.1342C91.4422 29.46 89.5343 30.504 87.2663 30.504ZM89.4622 25.536C90.7583 25.536 91.6222 24.924 92.5582 23.916V20.64C88.5622 21.144 87.2663 22.332 87.2663 23.772C87.2663 24.96 88.1302 25.536 89.4622 25.536Z" fill="#292D32"/>
<path d="M59.4534 29.9999V3.17993H68.8854C74.7534 3.17993 79.6134 5.30393 79.6134 11.9279C79.6134 18.2999 74.7174 21.1079 69.0294 21.1079H65.8974V29.9999H59.4534ZM65.8974 16.0319H68.7054C71.8374 16.0319 73.3494 14.5559 73.3494 11.9279C73.3494 9.22793 71.6214 8.29193 68.5254 8.29193H65.8974V16.0319Z" fill="#292D32"/>
<path d="M36.6929 30.504C31.4729 30.504 26.6489 26.544 26.6489 19.74C26.6489 12.972 31.4729 9.01196 36.6929 9.01196C41.8769 9.01196 46.7009 12.972 46.7009 19.74C46.7009 26.544 41.8769 30.504 36.6929 30.504ZM36.6929 25.32C39.0689 25.32 40.1489 23.16 40.1489 19.74C40.1489 16.356 39.0689 14.196 36.6929 14.196C34.2809 14.196 33.2009 16.356 33.2009 19.74C33.2009 23.16 34.2809 25.32 36.6929 25.32Z" fill="#292D32"/>
<path d="M0.812744 29.9999V3.17993H7.36475L14.0247 16.0319L16.6527 21.9719H16.8327C16.5087 19.1279 15.9687 15.2759 15.9687 12.0719V3.17993H22.0887V29.9999H15.5367L8.91274 17.0759L6.28474 11.2079H6.10474C6.39274 14.1959 6.93275 17.8679 6.93275 21.1079V29.9999H0.812744Z" fill="#292D32"/>
</svg>
