<svg width="219" height="74" viewBox="0 0 219 74" xmlns="http://www.w3.org/2000/svg">
<path d="M168.726 56.2799L167.79 44.1119L167.574 38.3879H174.018L173.802 44.1119L172.866 56.2799H168.726ZM170.778 66.5039C168.582 66.5039 166.998 64.7399 166.998 62.5079C166.998 60.2759 168.582 58.5479 170.778 58.5479C173.01 58.5479 174.594 60.2759 174.594 62.5079C174.594 64.7399 173.01 66.5039 170.778 66.5039Z" />
<path d="M154.418 56.2799L153.482 44.1119L153.266 38.3879H159.71L159.494 44.1119L158.558 56.2799H154.418ZM156.47 66.5039C154.274 66.5039 152.69 64.7399 152.69 62.5079C152.69 60.2759 154.274 58.5479 156.47 58.5479C158.702 58.5479 160.286 60.2759 160.286 62.5079C160.286 64.7399 158.702 66.5039 156.47 66.5039Z" />
<path d="M137.904 66.504C132.684 66.504 127.86 62.544 127.86 55.74C127.86 48.972 132.684 45.012 137.904 45.012C143.088 45.012 147.912 48.972 147.912 55.74C147.912 62.544 143.088 66.504 137.904 66.504ZM137.904 61.32C140.28 61.32 141.36 59.16 141.36 55.74C141.36 52.356 140.28 50.196 137.904 50.196C135.492 50.196 134.412 52.356 134.412 55.74C134.412 59.16 135.492 61.32 137.904 61.32Z" />
<path d="M110.474 73.884C109.142 73.884 108.314 73.74 107.45 73.488L108.602 68.628C108.962 68.7 109.502 68.88 109.97 68.88C111.914 68.88 112.922 67.872 113.39 66.432L113.678 65.388L105.83 45.516H112.274L115.01 54.012C115.622 55.884 116.054 57.792 116.594 59.808H116.774C117.17 57.864 117.638 55.956 118.106 54.012L120.482 45.516H126.602L119.546 66.036C117.566 71.292 115.334 73.884 110.474 73.884Z" />
<path d="M85.1018 66V37.236H91.4018V53.22H91.5818L97.6298 45.516H104.65L97.5218 54.048L105.154 66H98.2058L93.7778 58.224L91.4018 60.924V66H85.1018Z" />
<path d="M71.0718 66.504C65.8518 66.504 61.0278 62.544 61.0278 55.74C61.0278 48.972 65.8518 45.012 71.0718 45.012C76.2558 45.012 81.0798 48.972 81.0798 55.74C81.0798 62.544 76.2558 66.504 71.0718 66.504ZM71.0718 61.32C73.4478 61.32 74.5278 59.16 74.5278 55.74C74.5278 52.356 73.4478 50.196 71.0718 50.196C68.6598 50.196 67.5798 52.356 67.5798 55.74C67.5798 59.16 68.6598 61.32 71.0718 61.32Z" />
<path d="M48.321 66.0001V44.5441H41.085V39.1801H62.037V44.5441H54.765V66.0001H48.321Z" />
<path d="M207.284 30.504C202.172 30.504 198.896 26.436 198.896 19.74C198.896 13.044 203.108 9.01196 207.356 9.01196C209.624 9.01196 210.956 9.83996 212.288 11.136L212.072 8.07596V1.23596H218.48V30H213.26L212.792 28.02H212.648C211.208 29.46 209.228 30.504 207.284 30.504ZM208.976 25.248C210.2 25.248 211.172 24.852 212.072 23.52V15.456C211.1 14.556 209.948 14.232 208.868 14.232C207.104 14.232 205.484 15.888 205.484 19.668C205.484 23.592 206.78 25.248 208.976 25.248Z" />
<path d="M176.244 30V9.51596H181.464L181.932 12.072H182.04C183.732 10.416 185.82 9.01196 188.592 9.01196C193.056 9.01196 194.964 12.216 194.964 17.328V30H188.556V18.12C188.556 15.276 187.8 14.484 186.18 14.484C184.74 14.484 183.876 15.132 182.652 16.32V30H176.244Z" />
<path d="M158.882 30.504C154.382 30.504 152.474 27.3 152.474 22.188V9.51599H158.882V21.396C158.882 24.204 159.638 25.032 161.258 25.032C162.698 25.032 163.598 24.456 164.678 22.944V9.51599H171.086V30H165.866L165.398 27.192H165.254C163.562 29.208 161.654 30.504 158.882 30.504Z" />
<path d="M138.66 30.504C133.44 30.504 128.616 26.544 128.616 19.74C128.616 12.972 133.44 9.01196 138.66 9.01196C143.844 9.01196 148.668 12.972 148.668 19.74C148.668 26.544 143.844 30.504 138.66 30.504ZM138.66 25.32C141.036 25.32 142.116 23.16 142.116 19.74C142.116 16.356 141.036 14.196 138.66 14.196C136.248 14.196 135.168 16.356 135.168 19.74C135.168 23.16 136.248 25.32 138.66 25.32Z" />
<path d="M113.737 30V9.51596H118.957L119.425 13.08H119.533C121.045 10.344 123.313 9.01196 125.365 9.01196C126.589 9.01196 127.273 9.19196 127.849 9.44396L126.805 14.952C126.049 14.772 125.437 14.628 124.537 14.628C123.025 14.628 121.189 15.6 120.145 18.3V30H113.737Z" />
<path d="M87.0909 30.0001L95.4069 3.18005H103.111L111.427 30.0001H104.659L101.311 16.6081C100.591 13.9441 99.9069 10.7401 99.1869 8.00406H99.0429C98.3949 10.8121 97.6749 13.9441 96.9909 16.6081L93.6429 30.0001H87.0909ZM92.7429 23.8441V18.8761H105.703V23.8441H92.7429Z" />
<path d="M69.587 30.504C63.683 30.504 59.147 26.544 59.147 19.74C59.147 13.116 63.935 9.01196 68.867 9.01196C74.771 9.01196 77.651 13.296 77.651 18.876C77.651 20.028 77.507 21.144 77.363 21.648H65.339C65.915 24.456 67.859 25.608 70.451 25.608C71.927 25.608 73.295 25.176 74.771 24.312L76.895 28.164C74.771 29.676 71.963 30.504 69.587 30.504ZM65.231 17.436H72.215C72.215 15.42 71.315 13.908 68.975 13.908C67.211 13.908 65.663 15.024 65.231 17.436Z" />
<path d="M43.9477 30.504C38.8357 30.504 35.5597 26.436 35.5597 19.74C35.5597 13.044 39.7717 9.01196 44.0197 9.01196C46.2877 9.01196 47.6197 9.83996 48.9517 11.136L48.7357 8.07596V1.23596H55.1437V30H49.9237L49.4557 28.02H49.3117C47.8717 29.46 45.8917 30.504 43.9477 30.504ZM45.6397 25.248C46.8637 25.248 47.8357 24.852 48.7357 23.52V15.456C47.7637 14.556 46.6117 14.232 45.5317 14.232C43.7677 14.232 42.1477 15.888 42.1477 19.668C42.1477 23.592 43.4437 25.248 45.6397 25.248Z" />
<path d="M25.0374 30V9.51599H31.4454V30H25.0374ZM28.2414 6.67199C26.0814 6.67199 24.6774 5.37599 24.6774 3.35999C24.6774 1.37999 26.0814 0.0839844 28.2414 0.0839844C30.3654 0.0839844 31.8054 1.37999 31.8054 3.35999C31.8054 5.37599 30.3654 6.67199 28.2414 6.67199Z" />
<path d="M0.0529785 30.0001V3.18005H9.88098C15.605 3.18005 20.357 5.16005 20.357 11.6401C20.357 17.9401 15.605 20.5681 9.88098 20.5681H6.49698V30.0001H0.0529785ZM6.49698 15.4921H9.37698C12.437 15.4921 14.093 14.1601 14.093 11.6401C14.093 9.12005 12.437 8.29205 9.37698 8.29205H6.49698V15.4921ZM14.525 30.0001L8.72898 18.9121L13.085 14.7001L21.725 30.0001H14.525Z" />
</svg>
