<svg width="308" height="77" viewBox="0 0 308 77" fill="none" xmlns="http://www.w3.org/2000/svg">
<path d="M301.687 58.2799L300.751 46.1119L300.535 40.3879H306.979L306.763 46.1119L305.827 58.2799H301.687ZM303.739 68.5039C301.543 68.5039 299.959 66.7399 299.959 64.5079C299.959 62.2759 301.543 60.5479 303.739 60.5479C305.971 60.5479 307.555 62.2759 307.555 64.5079C307.555 66.7399 305.971 68.5039 303.739 68.5039Z" fill="#292D32"/>
<path d="M291.236 68.504C286.088 68.504 284 65.228 284 60.404V52.52H281.228V47.768L284.396 47.516L285.116 42.08H290.408V47.516H295.232V52.52H290.408V60.332C290.408 62.6 291.488 63.5 293 63.5C293.648 63.5 294.368 63.284 294.872 63.104L295.88 67.748C294.8 68.072 293.324 68.504 291.236 68.504Z" fill="#292D32"/>
<path d="M270.548 68.504C265.328 68.504 260.504 64.544 260.504 57.74C260.504 50.972 265.328 47.012 270.548 47.012C275.732 47.012 280.556 50.972 280.556 57.74C280.556 64.544 275.732 68.504 270.548 68.504ZM270.548 63.32C272.924 63.32 274.004 61.16 274.004 57.74C274.004 54.356 272.924 52.196 270.548 52.196C268.136 52.196 267.056 54.356 267.056 57.74C267.056 61.16 268.136 63.32 270.548 63.32Z" fill="#292D32"/>
<path d="M237.961 75.452V47.516H243.181L243.649 49.496H243.757C245.377 48.056 247.393 47.012 249.517 47.012C254.413 47.012 257.509 51.116 257.509 57.416C257.509 64.472 253.297 68.504 248.905 68.504C247.177 68.504 245.521 67.748 244.153 66.38L244.369 69.584V75.452H237.961ZM247.393 63.248C249.337 63.248 250.921 61.628 250.921 57.524C250.921 53.924 249.877 52.232 247.609 52.232C246.421 52.232 245.449 52.772 244.369 53.96V62.06C245.377 62.96 246.421 63.248 247.393 63.248Z" fill="#292D32"/>
<path d="M223.789 68.504C220.297 68.504 216.553 67.208 213.781 64.652L217.453 60.224C219.325 61.844 221.809 62.96 223.933 62.96C226.309 62.96 227.425 62.06 227.425 60.62C227.425 59.072 225.949 58.568 223.645 57.596L220.225 56.156C217.417 55.04 214.789 52.7 214.789 48.812C214.789 44.312 218.821 40.712 224.509 40.712C227.605 40.712 230.881 41.9 233.221 44.24L230.017 48.272C228.253 46.94 226.597 46.22 224.509 46.22C222.529 46.22 221.341 47.012 221.341 48.416C221.341 49.928 222.997 50.504 225.373 51.44L228.721 52.772C232.033 54.104 234.013 56.336 234.013 60.116C234.013 64.58 230.269 68.504 223.789 68.504Z" fill="#292D32"/>
<path d="M191.903 76.604C187.187 76.604 183.335 75.128 183.335 71.456C183.335 69.764 184.307 68.396 186.215 67.424V67.244C185.135 66.524 184.343 65.444 184.343 63.716C184.343 62.276 185.279 60.836 186.647 59.9V59.756C185.171 58.748 183.839 56.84 183.839 54.428C183.839 49.46 187.979 47.012 192.407 47.012C193.595 47.012 194.711 47.192 195.647 47.516H203.171V52.16H200.039C200.327 52.736 200.579 53.672 200.579 54.644C200.579 59.432 196.943 61.52 192.407 61.52C191.723 61.52 190.895 61.412 189.995 61.16C189.563 61.592 189.347 61.88 189.347 62.6C189.347 63.536 190.175 63.968 192.371 63.968H195.611C200.651 63.968 203.531 65.516 203.531 69.224C203.531 73.544 199.031 76.604 191.903 76.604ZM192.407 57.668C193.919 57.668 195.035 56.588 195.035 54.428C195.035 52.376 193.919 51.296 192.407 51.296C190.931 51.296 189.815 52.376 189.815 54.428C189.815 56.588 190.931 57.668 192.407 57.668ZM192.911 72.608C195.539 72.608 197.375 71.636 197.375 70.34C197.375 69.116 196.295 68.864 194.387 68.864H192.443C190.967 68.864 190.175 68.792 189.527 68.612C188.879 69.188 188.591 69.764 188.591 70.448C188.591 71.888 190.319 72.608 192.911 72.608Z" fill="#292D32"/>
<path d="M160.864 68V47.516H166.084L166.552 50.072H166.66C168.352 48.416 170.44 47.012 173.212 47.012C177.676 47.012 179.584 50.216 179.584 55.328V68H173.176V56.12C173.176 53.276 172.42 52.484 170.8 52.484C169.36 52.484 168.496 53.132 167.272 54.32V68H160.864Z" fill="#292D32"/>
<path d="M149.297 68V47.516H155.705V68H149.297ZM152.501 44.672C150.341 44.672 148.937 43.376 148.937 41.36C148.937 39.38 150.341 38.084 152.501 38.084C154.625 38.084 156.065 39.38 156.065 41.36C156.065 43.376 154.625 44.672 152.501 44.672Z" fill="#292D32"/>
<path d="M132.946 68.504C127.834 68.504 124.558 64.436 124.558 57.74C124.558 51.044 128.77 47.012 133.018 47.012C135.286 47.012 136.618 47.84 137.95 49.136L137.734 46.076V39.236H144.142V68H138.922L138.454 66.02H138.31C136.87 67.46 134.89 68.504 132.946 68.504ZM134.638 63.248C135.862 63.248 136.834 62.852 137.734 61.52V53.456C136.762 52.556 135.61 52.232 134.53 52.232C132.766 52.232 131.146 53.888 131.146 57.668C131.146 61.592 132.442 63.248 134.638 63.248Z" fill="#292D32"/>
<path d="M114.035 68V47.516H120.443V68H114.035ZM117.239 44.672C115.079 44.672 113.675 43.376 113.675 41.36C113.675 39.38 115.079 38.084 117.239 38.084C119.363 38.084 120.803 39.38 120.803 41.36C120.803 43.376 119.363 44.672 117.239 44.672Z" fill="#292D32"/>
<path d="M89.051 68.0001V41.1801H98.879C104.603 41.1801 109.355 43.1601 109.355 49.6401C109.355 55.9401 104.603 58.5681 98.879 58.5681H95.495V68.0001H89.051ZM95.495 53.4921H98.375C101.435 53.4921 103.091 52.1601 103.091 49.6401C103.091 47.1201 101.435 46.2921 98.375 46.2921H95.495V53.4921ZM103.523 68.0001L97.727 56.9121L102.083 52.7001L110.723 68.0001H103.523Z" fill="#292D32"/>
<path d="M51.468 68L46.428 47.516H52.764L54.6 56.66C54.924 58.712 55.14 60.728 55.464 62.816H55.644C56.004 60.728 56.328 58.676 56.832 56.66L58.956 47.516H64.464L66.66 56.66C67.128 58.712 67.488 60.728 67.92 62.816H68.1C68.424 60.728 68.64 58.712 69 56.66L70.764 47.516H76.704L71.88 68H64.392L62.664 60.188C62.268 58.28 61.944 56.408 61.584 54.176H61.404C61.08 56.408 60.792 58.28 60.432 60.188L58.776 68H51.468Z" fill="#292D32"/>
<path d="M36.4522 68.504C30.5482 68.504 26.0122 64.544 26.0122 57.74C26.0122 51.116 30.8002 47.012 35.7322 47.012C41.6362 47.012 44.5162 51.296 44.5162 56.876C44.5162 58.028 44.3722 59.144 44.2282 59.648H32.2042C32.7802 62.456 34.7242 63.608 37.3162 63.608C38.7922 63.608 40.1602 63.176 41.6362 62.312L43.7602 66.164C41.6362 67.676 38.8282 68.504 36.4522 68.504ZM32.0962 55.436H39.0802C39.0802 53.42 38.1802 51.908 35.8402 51.908C34.0762 51.908 32.5282 53.024 32.0962 55.436Z" fill="#292D32"/>
<path d="M0.176025 68.0001V41.1801H6.72803L13.388 54.0321L16.016 59.9721H16.196C15.872 57.1281 15.332 53.2761 15.332 50.0721V41.1801H21.452V68.0001H14.9L8.27602 55.0761L5.64803 49.2081H5.46803C5.75603 52.1961 6.29603 55.8681 6.29603 59.1081V68.0001H0.176025Z" fill="#292D32"/>
<path d="M258.615 30V9.51596H263.835L264.303 13.08H264.411C265.923 10.344 268.191 9.01196 270.243 9.01196C271.467 9.01196 272.151 9.19196 272.727 9.44396L271.683 14.952C270.927 14.772 270.315 14.628 269.415 14.628C267.903 14.628 266.067 15.6 265.023 18.3V30H258.615Z" fill="#292D32"/>
<path d="M246.458 30.504C240.554 30.504 236.018 26.544 236.018 19.74C236.018 13.116 240.806 9.01196 245.738 9.01196C251.642 9.01196 254.522 13.296 254.522 18.876C254.522 20.028 254.378 21.144 254.234 21.648H242.21C242.786 24.456 244.73 25.608 247.322 25.608C248.798 25.608 250.166 25.176 251.642 24.312L253.766 28.164C251.642 29.676 248.834 30.504 246.458 30.504ZM242.102 17.436H249.086C249.086 15.42 248.186 13.908 245.846 13.908C244.082 13.908 242.534 15.024 242.102 17.436Z" fill="#292D32"/>
<path d="M225.013 30.504C219.109 30.504 214.573 26.544 214.573 19.74C214.573 13.116 219.361 9.01196 224.293 9.01196C230.197 9.01196 233.077 13.296 233.077 18.876C233.077 20.028 232.933 21.144 232.789 21.648H220.765C221.341 24.456 223.285 25.608 225.877 25.608C227.353 25.608 228.721 25.176 230.197 24.312L232.321 28.164C230.197 29.676 227.389 30.504 225.013 30.504ZM220.657 17.436H227.641C227.641 15.42 226.741 13.908 224.401 13.908C222.637 13.908 221.089 15.024 220.657 17.436Z" fill="#292D32"/>
<path d="M192.03 30V9.51596H197.25L197.718 12.072H197.826C199.518 10.416 201.606 9.01196 204.378 9.01196C208.842 9.01196 210.75 12.216 210.75 17.328V30H204.342V18.12C204.342 15.276 203.586 14.484 201.966 14.484C200.526 14.484 199.662 15.132 198.438 16.32V30H192.03Z" fill="#292D32"/>
<path d="M178 30.504C172.78 30.504 167.956 26.544 167.956 19.74C167.956 12.972 172.78 9.01196 178 9.01196C183.184 9.01196 188.008 12.972 188.008 19.74C188.008 26.544 183.184 30.504 178 30.504ZM178 25.32C180.376 25.32 181.456 23.16 181.456 19.74C181.456 16.356 180.376 14.196 178 14.196C175.588 14.196 174.508 16.356 174.508 19.74C174.508 23.16 175.588 25.32 178 25.32Z" fill="#292D32"/>
<path d="M157.541 30V9.51599H163.949V30H157.541ZM160.745 6.67199C158.585 6.67199 157.181 5.37599 157.181 3.35999C157.181 1.37999 158.585 0.0839844 160.745 0.0839844C162.869 0.0839844 164.309 1.37999 164.309 3.35999C164.309 5.37599 162.869 6.67199 160.745 6.67199Z" fill="#292D32"/>
<path d="M133.33 30.0001V3.18005H142.762C148.63 3.18005 153.49 5.30405 153.49 11.9281C153.49 18.3001 148.594 21.1081 142.906 21.1081H139.774V30.0001H133.33ZM139.774 16.0321H142.582C145.714 16.0321 147.226 14.5561 147.226 11.9281C147.226 9.22806 145.498 8.29205 142.402 8.29205H139.774V16.0321Z" fill="#292D32"/>
<path d="M112.368 30.504C109.704 30.504 106.572 29.352 104.484 27.624L107.328 23.628C109.2 25.032 110.892 25.788 112.512 25.788C114.204 25.788 114.924 25.176 114.924 24.168C114.924 22.944 112.944 22.368 110.856 21.54C108.408 20.568 105.636 18.912 105.636 15.492C105.636 11.64 108.768 9.01196 113.556 9.01196C116.76 9.01196 119.136 10.308 120.864 11.64L118.02 15.456C116.544 14.412 115.104 13.728 113.772 13.728C112.296 13.728 111.612 14.232 111.612 15.204C111.612 16.428 113.376 16.896 115.5 17.652C118.056 18.624 120.9 20.1 120.9 23.808C120.9 27.588 117.948 30.504 112.368 30.504Z" fill="#292D32"/>
<path d="M97.149 15.924L95.745 13.152C98.301 11.928 99.561 10.344 99.561 7.86L99.417 4.224L101.469 7.068C100.857 7.572 99.993 7.96799 99.165 7.96799C97.329 7.96799 95.853 6.744 95.853 4.79999C95.853 2.67599 97.257 1.34399 99.165 1.34399C101.829 1.34399 103.197 3.396 103.197 6.888C103.197 10.848 101.217 13.944 97.149 15.924Z" fill="#292D32"/>
<path d="M87.4177 30.504C82.2697 30.504 80.1817 27.228 80.1817 22.404V14.52H77.4097V9.76796L80.5777 9.51596L81.2977 4.07996H86.5897V9.51596H91.4137V14.52H86.5897V22.332C86.5897 24.6 87.6697 25.5 89.1817 25.5C89.8297 25.5 90.5497 25.284 91.0537 25.104L92.0617 29.748C90.9817 30.072 89.5057 30.504 87.4177 30.504Z" fill="#292D32"/>
<path d="M67.8643 30.504C61.9603 30.504 57.4243 26.544 57.4243 19.74C57.4243 13.116 62.2123 9.01196 67.1443 9.01196C73.0483 9.01196 75.9283 13.296 75.9283 18.876C75.9283 20.028 75.7843 21.144 75.6403 21.648H63.6163C64.1923 24.456 66.1363 25.608 68.7283 25.608C70.2043 25.608 71.5723 25.176 73.0483 24.312L75.1723 28.164C73.0483 29.676 70.2403 30.504 67.8643 30.504ZM63.5083 17.436H70.4923C70.4923 15.42 69.5923 13.908 67.2523 13.908C65.4883 13.908 63.9403 15.024 63.5083 17.436Z" fill="#292D32"/>
<path d="M38.3733 30.0001V3.18005H44.8173V24.6001H55.2573V30.0001H38.3733Z" fill="#292D32"/>
</svg>
